<?xml version="1.0" encoding="UTF-8" standalone="no"?>
<svg width="18px" height="18px" viewBox="0 0 18 18" version="1.1" xmlns="http://www.w3.org/2000/svg" xmlns:xlink="http://www.w3.org/1999/xlink" xmlns:sketch="http://www.bohemiancoding.com/sketch/ns">
    <!-- Generator: Sketch 3.5.2 (25235) - http://www.bohemiancoding.com/sketch -->
    <title>icon-edit</title>
    <desc>Created with Sketch.</desc>
    <defs></defs>
    <g id="Page-1" stroke="none" stroke-width="1" fill="none" fill-rule="evenodd" sketch:type="MSPage">
        <path d="M14.6249045,6.74507678 L5.35367932,16.016302 C5.3120109,16.0579704 5.27034247,16.0788046 5.22867404,16.0996389 L0.520141682,17.9747181 C0.45763904,17.9955523 0.415970612,17.9955523 0.374302184,17.9955523 C0.270131114,17.9955523 0.186794258,17.9538839 0.103457402,17.8913813 C-0.00071366792,17.7872102 -0.0215478819,17.6205365 0.0201205461,17.474697 L1.8951998,12.7661646 C1.91603402,12.7244962 1.93686823,12.6828278 1.97853666,12.6411593 L11.2497619,3.36993411 L14.6249045,6.74507678 Z M17.6666998,2.09904706 C18.1042183,2.55739977 18.1042183,3.26576304 17.6666998,3.70328153 L15.7499521,5.62002922 L12.3748094,2.24488656 L14.2915571,0.32813887 C14.7290756,-0.109379623 15.4374389,-0.109379623 15.8957916,0.32813887 L17.6666998,2.09904706 L17.6666998,2.09904706 Z" id="icon-edit" fill="#404040" sketch:type="MSShapeGroup"></path>
    </g>
</svg>