<?xml version="1.0" encoding="UTF-8" standalone="no"?>
<svg width="40px" height="30px" viewBox="0 0 40 30" version="1.1" xmlns="http://www.w3.org/2000/svg" xmlns:xlink="http://www.w3.org/1999/xlink" xmlns:sketch="http://www.bohemiancoding.com/sketch/ns">
    <!-- Generator: Sketch 3.4.3 (16044) - http://www.bohemiancoding.com/sketch -->
    <title>icon-image</title>
    <desc>Created with Sketch.</desc>
    <defs></defs>
    <g id="Page-1" stroke="none" stroke-width="1" fill="none" fill-rule="evenodd" sketch:type="MSPage">
        <g id="icon-image" sketch:type="MSArtboardGroup" fill="#B2B2B2">
            <path d="M6,3 C4.88888889,3 4,3.88888889 4,5 L4,25 C4,26.1111111 4.88888889,27 6,27 L34,27 C35.1111111,27 36,26.1111111 36,25 L36,5 C36,3.88888889 35.1111111,3 34,3 L6,3 Z M11,7 C12.6666667,7 14,8.33333333 14,10 C14,11.6666667 12.6666667,13 11,13 C9.33333333,13 8,11.6666667 8,10 C8,8.33333333 9.33333333,7 11,7 L11,7 Z M32,23 L8,23 L12,17 L16.6666667,20.3333333 L24,11 L32,23 Z" id="image" sketch:type="MSShapeGroup"></path>
        </g>
    </g>
</svg>