<?xml version="1.0" encoding="UTF-8" standalone="no"?>
<svg width="22px" height="22px" viewBox="0 0 22 22" version="1.1" xmlns="http://www.w3.org/2000/svg" xmlns:xlink="http://www.w3.org/1999/xlink" xmlns:sketch="http://www.bohemiancoding.com/sketch/ns">
    <!-- Generator: Sketch 3.4 (15575) - http://www.bohemiancoding.com/sketch -->
    <title>external</title>
    <desc>Created with Sketch.</desc>
    <defs></defs>
    <g id="Page-1" stroke="none" stroke-width="1" fill="none" fill-rule="evenodd" sketch:type="MSPage">
        <g id="external" sketch:type="MSArtboardGroup" fill="#404040">
            <path d="M2,3.99508929 C2,2.8932319 2.8926228,2 3.99508929,2 L18.0049107,2 C19.1067681,2 20,2.8926228 20,3.99508929 L20,18.0049107 C20,19.1067681 19.1073772,20 18.0049107,20 L3.99508929,20 C2.8932319,20 2,19.1073772 2,18.0049107 L2,3.99508929 Z M16.5788352,11.767864 C16.5788352,12.043534 16.4091921,12.2873959 16.1653302,12.3934228 C16.0805087,12.4252309 15.9850844,12.4464363 15.9002629,12.4464363 C15.7200172,12.4464363 15.5503741,12.3828201 15.4231418,12.2449851 L13.8963543,10.7181976 L8.23451717,16.3800347 C7.96944989,16.645102 7.54534224,16.645102 7.28027496,16.3800347 L6.19880046,15.2985602 C5.93373318,15.0334929 5.93373318,14.6093853 6.19880046,14.344318 L11.8606376,8.68248088 L10.33385,7.15569334 C10.1323989,6.9648449 10.0793854,6.66796955 10.1854124,6.41350496 C10.2914393,6.16964306 10.5353012,6 10.8109711,6 L15.9002629,6 C16.2713571,6 16.5788352,6.30747805 16.5788352,6.67857224 L16.5788352,11.767864 Z" id="Rectangle-1" sketch:type="MSShapeGroup"></path>
        </g>
    </g>
</svg>