<?xml version="1.0" encoding="UTF-8" standalone="no"?>
<svg width="20px" height="20px" viewBox="0 0 20 20" version="1.1" xmlns="http://www.w3.org/2000/svg" xmlns:xlink="http://www.w3.org/1999/xlink" xmlns:sketch="http://www.bohemiancoding.com/sketch/ns">
    <!-- Generator: Sketch 3.4 (15575) - http://www.bohemiancoding.com/sketch -->
    <title>icon-delete</title>
    <desc>Created with Sketch.</desc>
    <defs></defs>
    <g id="Page-1" stroke="none" stroke-width="1" fill="none" fill-rule="evenodd" sketch:type="MSPage">
        <g id="icon-delete" sketch:type="MSArtboardGroup" fill="#404040">
            <path d="M18.9166667,0 L1.41666667,0 C1.18518519,0 1,0.185185185 1,0.416666667 L1,2.08333333 C1,2.31481481 1.18518519,2.5 1.41666667,2.5 L18.9166667,2.5 C19.1481481,2.5 19.3333333,2.31481481 19.3333333,2.08333333 L19.3333333,0.416666667 C19.3333333,0.185185185 19.1481481,0 18.9166667,0 L18.9166667,0 Z M2.66666667,4.16666667 L3.91666667,19.6296296 C3.93981481,19.837963 4.125,20 4.33333333,20 L16,20 C16.2083333,20 16.3935185,19.837963 16.4166667,19.6296296 L17.6666667,4.16666667 L2.66666667,4.16666667 Z" id="trash" sketch:type="MSShapeGroup"></path>
        </g>
    </g>
</svg>